<?xml version="1.0" standalone="no"?>
<!DOCTYPE svg PUBLIC "-//W3C//DTD SVG 20010904//EN"
 "http://www.w3.org/TR/2001/REC-SVG-20010904/DTD/svg10.dtd">
<svg version="1.0" xmlns="http://www.w3.org/2000/svg"
 width="3840.000000pt" height="2160.000000pt" viewBox="0 0 3840.000000 2160.000000"
 preserveAspectRatio="xMidYMid meet">
<metadata>
Created by potrace 1.16, written by Peter Selinger 2001-2019
</metadata>
<g transform="translate(0.000000,2160.000000) scale(0.100000,-0.100000)"
fill="#000000" stroke="none">
<path d="M27615 10035 c-61 -30 -139 -71 -175 -91 -81 -46 -320 -204 -320
-211 0 -3 10 1 23 9 88 58 411 225 539 279 57 24 65 33 50 56 -6 9 -38 -3
-117 -42z"/>
<path d="M29770 9614 c-118 -31 -242 -102 -344 -195 l-57 -52 27 -28 c15 -16
32 -29 37 -29 5 0 62 29 127 65 186 104 251 128 340 128 84 -1 140 -13 214
-49 27 -13 52 -22 54 -19 6 6 32 178 28 183 -2 1 -15 -2 -29 -9 -19 -9 -40 -8
-95 5 -87 20 -228 20 -302 0z"/>
<path d="M27920 9250 c-198 -42 -375 -136 -550 -293 -77 -70 -88 -76 -117 -71
-44 8 -42 -5 11 -60 66 -67 84 -68 153 -8 227 195 523 308 744 285 l59 -6 0
64 c0 35 3 74 6 87 6 22 6 22 -107 21 -70 0 -147 -7 -199 -19z"/>
<path d="M28293 6568 c-11 -13 -33 -42 -48 -65 l-27 -42 71 -116 c255 -421
451 -942 482 -1280 10 -120 6 -355 -8 -412 -7 -30 -75 -72 -136 -85 -70 -14
-123 1 -188 55 -87 71 -115 129 -487 977 -140 321 -209 466 -246 519 l-51 75
-11 -60 c-6 -32 -7 -68 -3 -79 48 -137 356 -934 400 -1038 125 -291 243 -490
327 -551 69 -51 155 -77 253 -78 102 -1 159 14 201 51 39 35 46 81 46 301 1
489 -134 1035 -383 1554 -39 82 -161 296 -169 296 -1 0 -12 -10 -23 -22z"/>
<path d="M25213 5533 c-17 -26 -43 -70 -58 -97 l-28 -49 11 -191 c28 -436 102
-813 271 -1361 89 -287 98 -312 128 -352 38 -52 57 -58 107 -33 69 33 74 42
82 167 l7 112 -39 -19 c-21 -11 -51 -20 -67 -20 -26 0 -32 8 -77 103 -132 280
-246 661 -301 1007 -28 170 -36 524 -16 670 8 58 13 106 12 108 -1 1 -16 -19
-32 -45z"/>
<path d="M27438 5376 c-15 -42 -15 -53 3 -172 10 -71 21 -167 25 -214 l6 -85
-44 -85 c-25 -47 -83 -150 -130 -230 -105 -179 -124 -216 -132 -260 l-7 -35
31 35 c61 68 132 187 228 380 l97 195 -1 95 c-1 91 -39 381 -53 407 -4 8 -13
-5 -23 -31z"/>
</g>
</svg>
